<svg width="40" height="12" viewBox="0 0 40 12" fill="none" xmlns="http://www.w3.org/2000/svg">
<path d="M38.2173 11.9705C37.9173 11.9705 37.5933 11.8145 37.2453 11.5025C36.9093 11.1905 36.5973 10.7765 36.3093 10.2605L34.3833 6.76853H32.8893L32.8353 9.45053C32.8353 9.88253 32.8593 10.2065 32.9073 10.4225C32.9673 10.6265 33.0873 10.7645 33.2673 10.8365C33.4593 10.8965 33.7473 10.9265 34.1313 10.9265L34.1673 10.9985L34.0053 11.7545C34.0053 11.7545 33.9453 11.7485 33.8253 11.7365C33.7053 11.7365 33.5493 11.7305 33.3573 11.7185C33.1773 11.7185 32.9733 11.7125 32.7453 11.7005C32.5293 11.7005 32.3133 11.7005 32.0973 11.7005C31.7973 11.6885 31.4853 11.6885 31.1613 11.7005C30.8493 11.7125 30.5793 11.7245 30.3513 11.7365C30.1353 11.7485 30.0273 11.7545 30.0273 11.7545L30.1893 10.9445C30.7533 10.8845 31.1193 10.7645 31.2873 10.5845C31.4673 10.3925 31.5573 10.0385 31.5573 9.52253L31.5753 1.96253C31.5753 1.57853 31.5273 1.32053 31.4313 1.18853C31.3473 1.05653 31.1733 0.990531 30.9093 0.990531C30.8013 0.990531 30.6693 0.996531 30.5133 1.00853C30.3693 1.02053 30.2973 1.02653 30.2973 1.02653L30.2613 0.954532L30.3873 0.162531C30.3873 0.162531 30.4533 0.168531 30.5853 0.180531C30.7293 0.180531 30.9093 0.186531 31.1253 0.198532C31.3413 0.198532 31.5633 0.204531 31.7913 0.216531C32.0193 0.216531 32.2173 0.216531 32.3853 0.216531C32.5413 0.216531 32.7393 0.216531 32.9793 0.216531C33.2313 0.204531 33.4773 0.192532 33.7173 0.180531C33.9693 0.168531 34.1793 0.162531 34.3473 0.162531C34.5153 0.150531 34.5993 0.144531 34.5993 0.144531C35.7153 0.144531 36.5973 0.396531 37.2453 0.900531C37.8933 1.40453 38.2173 2.09453 38.2173 2.97053C38.2173 3.69053 37.9833 4.35053 37.5153 4.95053C37.0593 5.55053 36.4113 6.04253 35.5713 6.42653L37.5513 9.55853C37.8993 10.1225 38.2353 10.5185 38.5593 10.7465C38.8953 10.9745 39.3033 11.0885 39.7833 11.0885L39.8553 11.1605L39.7473 11.7725L38.2173 11.9705ZM34.7793 5.94053C34.7793 5.94053 34.8753 5.90453 35.0673 5.83253C35.2713 5.74853 35.4993 5.61053 35.7513 5.41853C36.0033 5.22653 36.2253 4.95653 36.4173 4.60853C36.6213 4.26053 36.7233 3.82253 36.7233 3.29453C36.7233 2.50253 36.4473 1.90853 35.8953 1.51253C35.3553 1.11653 34.5333 0.918531 33.4293 0.918531C33.3093 0.918531 33.2253 0.948531 33.1773 1.00853C33.1413 1.05653 33.1173 1.16453 33.1053 1.33253C33.0573 2.28053 33.0153 3.09653 32.9793 3.78053C32.9553 4.46453 32.9373 5.12453 32.9253 5.76053L34.7793 5.94053Z" fill="#EDE8E4"/>
<path d="M19.6984 11.898C18.6064 11.898 17.6584 11.67 16.8544 11.214C16.0504 10.758 15.4264 10.116 14.9824 9.288C14.5384 8.448 14.3164 7.464 14.3164 6.336C14.3164 5.424 14.4724 4.584 14.7844 3.816C15.0964 3.036 15.5344 2.364 16.0984 1.8C16.6624 1.224 17.3224 0.780001 18.0784 0.468C18.8464 0.156 19.6864 0 20.5984 0C20.9704 0 21.3424 0.0240004 21.7144 0.0720005C22.0864 0.108001 22.4224 0.156001 22.7224 0.216001C23.0224 0.276 23.2624 0.330001 23.4424 0.378001C23.6344 0.414001 23.7304 0.432001 23.7304 0.432001L23.8024 0.540001C23.8024 0.540001 23.7724 0.678001 23.7124 0.954001C23.6524 1.218 23.5864 1.578 23.5144 2.034C23.4424 2.49 23.3884 2.994 23.3524 3.546L22.4884 3.618C22.4884 3.618 22.4944 3.522 22.5064 3.33C22.5304 3.126 22.5424 2.928 22.5424 2.736C22.5424 2.172 22.3204 1.752 21.8764 1.476C21.4444 1.2 20.7844 1.062 19.8964 1.062C19.0924 1.062 18.3904 1.254 17.7904 1.638C17.2024 2.022 16.7464 2.562 16.4224 3.258C16.0984 3.954 15.9364 4.782 15.9364 5.742C15.9364 6.798 16.1044 7.722 16.4404 8.514C16.7884 9.294 17.2684 9.906 17.8804 10.35C18.5044 10.782 19.2304 10.998 20.0584 10.998C20.8744 10.998 21.5284 10.77 22.0204 10.314C22.5244 9.846 22.8904 9.126 23.1184 8.154L23.9824 8.082C23.9824 8.082 23.9644 8.172 23.9284 8.352C23.8924 8.532 23.8444 8.772 23.7844 9.072C23.7364 9.36 23.6824 9.678 23.6224 10.026C23.5744 10.362 23.5324 10.692 23.4964 11.016L23.3884 11.178C23.3884 11.178 23.2264 11.238 22.9024 11.358C22.5904 11.478 22.1584 11.598 21.6064 11.718C21.0544 11.838 20.4184 11.898 19.6984 11.898Z" fill="#EDE8E4"/>
<path d="M2.088 11.754L2.232 10.98C2.796 10.932 3.204 10.86 3.456 10.764C3.708 10.656 3.864 10.458 3.924 10.17C3.996 9.87 4.032 9.402 4.032 8.766V0.918C3.336 0.942001 2.784 0.978001 2.376 1.026C1.98 1.062 1.686 1.152 1.494 1.296C1.302 1.428 1.164 1.644 1.08 1.944C0.996 2.244 0.918 2.658 0.846 3.186L0 3.258C0.048 2.91 0.09 2.55 0.126 2.178C0.162 1.806 0.192 1.446 0.216 1.098C0.24 0.738001 0.258 0.420001 0.27 0.144001L0.432 0L1.926 0.198001H7.506L9.036 0L9.198 0.144001C9.21 0.420001 9.228 0.738001 9.252 1.098C9.276 1.446 9.306 1.8 9.342 2.16C9.39 2.52 9.432 2.862 9.468 3.186L8.622 3.258C8.538 2.718 8.448 2.298 8.352 1.998C8.268 1.686 8.13 1.464 7.938 1.332C7.758 1.188 7.482 1.092 7.11 1.044C6.738 0.996001 6.228 0.954 5.58 0.918C5.544 1.278 5.508 1.794 5.472 2.466C5.436 3.138 5.406 3.894 5.382 4.734C5.358 5.562 5.334 6.408 5.31 7.272C5.298 8.136 5.292 8.934 5.292 9.666C5.292 10.11 5.37 10.428 5.526 10.62C5.682 10.8 5.946 10.89 6.318 10.89C6.678 10.89 7.008 10.872 7.308 10.836L7.362 10.908L7.2 11.736C6.948 11.724 6.654 11.712 6.318 11.7C5.982 11.7 5.652 11.694 5.328 11.682C5.016 11.682 4.758 11.682 4.554 11.682C4.362 11.682 4.116 11.682 3.816 11.682C3.528 11.694 3.228 11.706 2.916 11.718C2.616 11.73 2.34 11.742 2.088 11.754Z" fill="#EDE8E4"/>
</svg>
